<svg width="400" height="260" viewBox="0 0 400 260" fill="none" xmlns="http://www.w3.org/2000/svg">
<g clip-path="url(#clip0_1129_28008)">
<path d="M194.176 10.4458C195.53 18.1991 197.269 29.4705 198.453 37.3727C200.054 46.3709 201.192 55.3555 200.454 64.5025L200.131 64.5296C197.299 55.7073 196.361 46.6956 195.853 37.6027L194.776 24.0446C194.468 19.5252 194.114 15.0058 193.853 10.4729L194.176 10.4458Z" fill="#231F20"/>
<path d="M186.79 4.84424C188.452 14.3701 190.59 28.2395 192.052 37.9413C194.022 48.9962 195.422 60.0511 194.499 71.2955L194.099 71.336C190.621 60.4976 189.452 49.4157 188.836 38.239L187.513 21.5687C187.144 16.0074 186.713 10.4461 186.39 4.88483L186.79 4.84424Z" fill="#231F20"/>
<path d="M182.05 12.4893C183.358 19.972 185.035 30.8645 186.189 38.4825C187.728 47.1695 188.836 55.8429 188.113 64.6652L187.805 64.6922C185.081 56.1812 184.158 47.4807 183.666 38.699L182.619 25.6144C182.327 21.2439 181.988 16.8869 181.742 12.5163L182.05 12.4893Z" fill="#231F20"/>
<path d="M175.096 1.84033C176.973 12.5164 179.343 28.0636 180.989 38.9426C183.19 51.3371 184.759 63.718 183.743 76.3155L183.297 76.3561C179.404 64.2052 178.096 51.7836 177.404 39.2538L175.911 20.5809C175.496 14.3431 175.003 8.11876 174.649 1.88093L175.096 1.84033Z" fill="#231F20"/>
<path d="M172.203 17.3198C173.311 23.6794 174.742 32.9347 175.711 39.4161C177.019 46.7906 177.958 54.1785 177.342 61.6748L177.081 61.7018C174.757 54.4627 173.988 47.0747 173.572 39.6055L172.68 28.483C172.434 24.7755 172.141 21.0679 171.926 17.3469L172.187 17.3198H172.203Z" fill="#231F20"/>
<path d="M163.985 2.92285C165.847 13.5854 168.232 29.092 169.879 39.9439C172.079 52.3113 173.649 64.6788 172.618 77.2492L172.171 77.2897C168.278 65.1659 166.97 52.7714 166.278 40.2687L164.801 21.6228C164.385 15.3985 163.908 9.18775 163.539 2.96344L163.985 2.92285Z" fill="#231F20"/>
<path d="M161.8 20.6216C162.8 26.3046 164.062 34.5857 164.939 40.377C166.108 46.9802 166.939 53.5698 166.401 60.2812L166.155 60.3083C164.077 53.8404 163.385 47.2237 163.016 40.5529L162.231 30.6075C162.015 27.2924 161.754 23.9773 161.554 20.6486L161.8 20.6216Z" fill="#231F20"/>
<path d="M156.138 18.5239C157.261 24.9512 158.692 34.3012 159.692 40.8502C161.015 48.3059 161.954 55.7615 161.354 63.3524L161.077 63.3795C158.738 56.0592 157.938 48.59 157.522 41.0532L156.63 29.8089C156.384 26.0607 156.091 22.3126 155.876 18.551L156.153 18.5239H156.138Z" fill="#231F20"/>
<path d="M150.936 19.8364C152.014 26.0201 153.398 35.0183 154.352 41.3238C155.63 48.4953 156.537 55.6803 155.953 62.9736L155.691 63.0006C153.429 55.9645 152.675 48.7659 152.275 41.5132L151.413 30.6884C151.167 27.0756 150.89 23.4763 150.675 19.8635L150.936 19.8364Z" fill="#231F20"/>
<path d="M141.304 10.5137C144.043 19.5524 147.72 32.7182 150.29 41.9329C153.491 52.4059 156.153 62.9467 156.599 73.8527L156.214 73.9204C151.583 63.7856 149.151 53.2178 147.228 42.5012L143.981 26.5615C142.965 21.2303 141.888 15.9126 140.919 10.5813L141.304 10.5137Z" fill="#231F20"/>
<path d="M135.349 19.7554C138.288 26.4803 142.35 36.3174 145.197 43.1912C148.628 50.9987 151.66 58.8738 153.029 67.2089L152.737 67.2901C148.228 59.8615 145.366 51.9323 142.889 43.8543L138.904 31.8657C137.626 27.8605 136.303 23.8553 135.057 19.8366L135.349 19.7554Z" fill="#231F20"/>
<path d="M124.454 9.55273C128.901 19.7011 135.026 34.5176 139.288 44.896C144.474 56.6545 149.028 68.5483 151.106 81.1187L150.675 81.2405C143.889 70.0232 139.565 58.0752 135.841 45.8973L129.825 27.8197C127.901 21.7713 125.901 15.7364 124.023 9.67451L124.454 9.55273Z" fill="#231F20"/>
<path d="M123.562 21.0005C126.747 28.2802 131.148 38.9157 134.21 46.3578C137.934 54.8012 141.196 63.3258 142.689 72.3375L142.381 72.4322C137.503 64.3947 134.41 55.816 131.733 47.0749L127.424 34.1121C126.039 29.7686 124.608 25.4522 123.27 21.0952L123.577 21.0005H123.562Z" fill="#231F20"/>
<path d="M121.177 28.4829C123.608 34.0171 126.947 42.1223 129.286 47.7783C132.118 54.2055 134.61 60.6869 135.734 67.5607L135.503 67.6284C131.795 61.5123 129.44 54.9768 127.394 48.333L124.116 38.4553C123.07 35.1537 121.977 31.8657 120.946 28.5506L121.177 28.4829Z" fill="#231F20"/>
<path d="M114.468 22.0288C117.838 29.7145 122.469 40.9453 125.716 48.8068C129.64 57.7238 133.102 66.722 134.672 76.2479L134.349 76.3426C129.209 67.8451 125.932 58.7928 123.1 49.5646L118.546 35.8711C117.084 31.2841 115.576 26.7241 114.16 22.1235L114.483 22.0288H114.468Z" fill="#231F20"/>
<path d="M110.975 30.2959C113.529 36.1278 117.038 44.6389 119.5 50.5925C122.469 57.3446 125.101 64.1778 126.286 71.3898L126.039 71.4575C122.146 65.0167 119.669 58.1564 117.515 51.1609L114.068 40.7825C112.96 37.305 111.821 33.841 110.744 30.3636L110.99 30.2959H110.975Z" fill="#231F20"/>
<path d="M101.682 20.9326C105.575 29.8361 110.96 42.853 114.715 51.9729C119.27 62.2972 123.27 72.7297 125.086 83.771L124.701 83.8793C118.731 74.0286 114.946 63.542 111.668 52.8389L106.39 36.967C104.698 31.6628 102.943 26.3586 101.297 21.0409L101.682 20.9326Z" fill="#231F20"/>
<path d="M99.6034 26.8052C102.912 34.3691 107.482 45.4104 110.667 53.1502C114.529 61.9184 117.93 70.7677 119.469 80.1447L119.146 80.2395C114.083 71.8772 110.867 62.9738 108.082 53.8944L103.604 40.4175C102.173 35.9116 100.681 31.4193 99.2803 26.8999L99.6034 26.8052Z" fill="#231F20"/>
<path d="M88.0634 22.9487C93.5722 31.9875 101.266 45.2344 106.652 54.5168C113.068 65.0034 118.915 75.6523 122.516 87.2079L122.131 87.3703C114.284 77.5738 108.667 66.8165 103.543 55.8022L95.511 39.4973C92.8951 34.0307 90.233 28.5912 87.6787 23.1111L88.0634 22.9487Z" fill="#231F20"/>
<path d="M81.339 32.6909C87.0478 39.7812 95.1109 50.2137 100.727 57.5205C107.375 65.7474 113.561 74.1637 117.961 83.5543L117.654 83.7302C109.883 76.2069 103.882 67.6959 98.2653 58.9006L89.5714 45.9243C86.7247 41.5673 83.8318 37.2374 81.0312 32.8668L81.339 32.6909Z" fill="#231F20"/>
<path d="M72.1064 29.1865C79.2 38.0088 89.202 50.9716 96.2033 60.0374C104.451 70.2534 112.145 80.7129 117.623 92.3767L117.238 92.5932C107.59 83.2568 100.127 72.6619 93.1412 61.7423L82.3391 45.6268C78.8 40.2144 75.2147 34.8425 71.7217 29.403L72.1064 29.1865Z" fill="#231F20"/>
<path d="M69.6901 35.8574C75.9221 43.6107 84.7391 55.0175 90.8942 63.0008C98.1571 71.9854 104.928 81.2001 109.744 91.4567L109.405 91.6461C100.911 83.4328 94.341 74.1098 88.2013 64.5027L78.6918 50.3222C75.5835 45.5592 72.4137 40.8233 69.3516 36.0469L69.6901 35.8574Z" fill="#231F20"/>
<path d="M64.4125 35.6816C71.1523 44.0574 80.6618 56.3707 87.3092 65.0035C95.1569 74.7053 102.451 84.6507 107.667 95.7326L107.298 95.9356C98.1267 87.0592 91.033 77.0056 84.401 66.6137L74.1375 51.2965C70.783 46.1547 67.3669 41.04 64.0586 35.8846L64.4279 35.6816H64.4125Z" fill="#231F20"/>
<path d="M61.7352 39.4297C68.1057 47.3589 77.1074 59.0092 83.401 67.182C90.8178 76.3696 97.7422 85.7737 102.666 96.2603L102.328 96.4497C93.6491 88.0469 86.9401 78.5346 80.662 68.6974L70.9524 54.2056C67.7672 49.3345 64.5512 44.5038 61.4121 39.6191L61.7506 39.4297H61.7352Z" fill="#231F20"/>
<path d="M66.151 51.418C70.2133 56.4651 75.9529 63.8936 79.9536 69.0896C84.6776 74.935 89.0785 80.9293 92.2175 87.6137L92.0021 87.7354C86.478 82.3906 82.2002 76.3152 78.1994 70.0638L72.0136 60.8356C69.9825 57.737 67.9359 54.6519 65.9355 51.5397L66.151 51.418Z" fill="#231F20"/>
<path d="M58.9342 48.3874C64.1198 54.8417 71.4443 64.327 76.5684 70.9708C82.6003 78.4535 88.2321 86.1121 92.2483 94.6367L91.9713 94.7855C84.9084 87.9523 79.4458 80.199 74.3372 72.2021L66.4279 60.403C63.8428 56.4384 61.2116 52.5009 58.6572 48.5227L58.9342 48.3604V48.3874Z" fill="#231F20"/>
<path d="M41.193 47.1426C49.9178 54.9636 62.3509 66.5191 71.0295 74.6242C81.1853 83.6765 90.8179 93.0671 98.4656 103.973L98.127 104.244C86.7402 96.2605 77.2923 86.721 68.2905 76.7621L54.4879 62.1486C49.9485 57.2368 45.3477 52.3521 40.8545 47.4132L41.193 47.1426Z" fill="#231F20"/>
<path d="M35.576 56.9116C44.824 62.8924 58.0727 71.7958 67.3206 78.0337C78.0765 84.9616 88.417 92.2413 97.2033 101.172L96.9417 101.456C85.2471 95.6782 75.0606 88.2226 65.1971 80.3339L50.1942 68.8325C45.2394 64.9491 40.2385 61.1063 35.3145 57.1958L35.576 56.9116Z" fill="#231F20"/>
<path d="M36.638 64.7329C44.3934 69.7394 55.4878 77.2086 63.2432 82.4316C72.2603 88.2364 80.9235 94.3389 88.2787 101.822L88.0479 102.065C78.246 97.2211 69.7059 90.9697 61.4428 84.3665L48.8712 74.7324C44.7165 71.4849 40.5311 68.2645 36.4072 64.9765L36.638 64.7329Z" fill="#231F20"/>
<path d="M28.0826 64.0023C37.4998 70.0913 50.9794 79.1571 60.3965 85.5032C71.3525 92.5529 81.8776 99.9679 90.8178 109.047L90.5408 109.345C78.6308 103.459 68.2596 95.868 58.2269 87.8441L42.947 76.1397C37.8999 72.1886 32.822 68.2781 27.8057 64.2865L28.0826 63.9888V64.0023Z" fill="#231F20"/>
<path d="M30.4986 73.582C37.8847 78.3585 48.4405 85.4488 55.8266 90.4282C64.4128 95.9489 72.6606 101.767 79.6619 108.885L79.4465 109.115C70.1062 104.501 61.9816 98.5604 54.1186 92.2685L42.147 83.0944C38.1924 79.9958 34.207 76.9377 30.2832 73.8121L30.4986 73.582Z" fill="#231F20"/>
<path d="M34.191 82.1742C39.4689 85.584 47.0242 90.6582 52.3022 94.2168C58.4418 98.1679 64.3352 102.322 69.3362 107.41L69.1823 107.572C62.5041 104.27 56.703 100.022 51.0711 95.5294L42.5157 88.9668C39.6843 86.7477 36.8376 84.5692 34.0371 82.323L34.191 82.1606V82.1742Z" fill="#231F20"/>
<path d="M17.8339 76.3696C27.0356 82.3098 40.192 91.1591 49.3938 97.3564C60.0881 104.23 70.367 111.483 79.0918 120.346L78.8302 120.63C67.1972 114.879 57.0722 107.478 47.2703 99.6431L32.3597 88.2229C27.4357 84.3665 22.4655 80.5507 17.5723 76.6538L17.8339 76.3696Z" fill="#231F20"/>
<path d="M19.2195 91.105C27.2519 94.2307 38.8079 98.953 46.8864 102.268C56.2113 105.881 65.3053 109.818 73.5377 115.204L73.3992 115.461C63.5819 112.849 54.5648 108.763 45.7323 104.298L32.3759 97.8976C27.9443 95.7191 23.4973 93.5812 19.0811 91.3621L19.2195 91.105Z" fill="#231F20"/>
<path d="M5.69389 99.3184C17.0961 101.334 33.5608 104.528 45.0861 106.788C58.3194 109.101 71.3373 111.902 83.7397 116.801L83.632 117.166C70.0909 116.259 57.1192 113.242 44.2398 109.697L24.8976 104.785C18.4656 103.08 12.0182 101.429 5.60156 99.6837L5.70928 99.3184H5.69389Z" fill="#231F20"/>
<path d="M21.9583 106.381C28.3287 107.504 37.5459 109.291 43.9779 110.549C51.3793 111.848 58.6576 113.418 65.5974 116.151L65.5359 116.354C57.9652 115.84 50.7176 114.162 43.5163 112.186L32.6988 109.439C29.0981 108.492 25.4974 107.572 21.9121 106.584L21.9737 106.381H21.9583Z" fill="#231F20"/>
<path d="M7.38603 106.558C17.7419 108.384 32.714 111.294 43.1775 113.337C55.1952 115.434 67.0437 117.991 78.292 122.443L78.1997 122.768C65.8896 121.942 54.1181 119.196 42.4082 115.989L24.8202 111.524C18.9729 109.981 13.1102 108.479 7.27832 106.896L7.37065 106.571L7.38603 106.558Z" fill="#231F20"/>
<path d="M0.354044 108.195C12.5102 110.346 30.0675 113.756 42.3621 116.151C56.4725 118.614 70.3675 121.604 83.5854 126.827L83.4777 127.22C69.0288 126.245 55.2107 123.025 41.4696 119.263L20.8349 114.027C13.972 112.214 7.0938 110.455 0.261719 108.587L0.369432 108.195H0.354044Z" fill="#231F20"/>
<path d="M4.56986 112.958C15.1873 114.838 30.5441 117.815 41.2692 119.913C53.5947 122.064 65.7355 124.689 77.2915 129.249L77.1992 129.587C64.5814 128.735 52.4868 125.92 40.4998 122.632L22.4656 118.045C16.4645 116.462 10.4633 114.92 4.47754 113.296L4.56986 112.958Z" fill="#231F20"/>
<path d="M12.3716 119.886C20.2962 121.293 31.76 123.512 39.7769 125.082C48.9787 126.692 58.0419 128.64 66.659 132.05L66.582 132.307C57.1648 131.671 48.1323 129.574 39.1768 127.111L25.7126 123.688C21.2349 122.497 16.7571 121.361 12.2793 120.143L12.3562 119.886H12.3716Z" fill="#231F20"/>
<path d="M12.0635 132.78C19.8958 132.429 31.2826 132.104 39.2533 131.887C48.3474 131.468 57.3953 131.387 66.4432 132.78V133.038C57.4107 134.431 48.3628 134.35 39.2533 133.931L25.6661 133.552C21.1421 133.376 16.6028 133.241 12.0789 133.038V132.78H12.0635Z" fill="#231F20"/>
<path d="M0 147.381C11.5407 144.242 28.3593 139.952 40.1462 136.975C53.518 133.309 66.9975 130.169 81.0617 129.222L81.1694 129.601C68.3054 134.689 54.7644 137.598 41.0233 140.006L20.5886 143.971C13.7565 145.229 6.9398 146.542 0.107713 147.746L0 147.367L0 147.381Z" fill="#231F20"/>
<path d="M11.6482 150.033C20.2806 147.678 32.8677 144.485 41.6694 142.252C51.6713 139.505 61.7501 137.165 72.2599 136.461L72.3368 136.745C62.7042 140.547 52.5945 142.726 42.3156 144.525L27.0358 147.489C21.9271 148.436 16.8338 149.41 11.7098 150.317L11.6328 150.033H11.6482Z" fill="#231F20"/>
<path d="M20.0342 151.629C26.5431 149.857 36.0526 147.435 42.7001 145.757C50.2554 143.687 57.8568 141.914 65.7968 141.386L65.8584 141.603C58.5954 144.471 50.9478 146.122 43.1925 147.475L31.6672 149.721C27.8049 150.425 23.9734 151.169 20.1111 151.859L20.0496 151.643L20.0342 151.629Z" fill="#231F20"/>
<path d="M11.9102 157.245C21.0196 154.768 34.3299 151.372 43.6393 149.018C54.2106 146.122 64.8588 143.646 75.9686 142.888L76.061 143.186C65.8898 147.205 55.1954 149.505 44.3318 151.413L28.1902 154.552C22.7892 155.54 17.4035 156.582 12.0025 157.542L11.9102 157.245Z" fill="#231F20"/>
<path d="M8.43238 161.67C18.819 158.842 33.9758 154.985 44.5932 152.306C56.6417 149.005 68.7671 146.177 81.431 145.324L81.5234 145.662C69.9365 150.236 57.7496 152.861 45.3626 155.026L26.959 158.598C20.804 159.735 14.6797 160.912 8.50932 162.008L8.41699 161.67H8.43238Z" fill="#231F20"/>
<path d="M8.61719 165.228C19.2346 162.332 34.7145 158.395 45.5628 155.662C57.8728 152.279 70.2598 149.397 83.2161 148.531L83.3239 148.883C71.4754 153.564 59.0269 156.243 46.3783 158.449L27.5747 162.102C21.2965 163.266 15.0184 164.47 8.7249 165.58L8.61719 165.228Z" fill="#231F20"/>
<path d="M12.6484 176.933C22.5119 171.98 36.9916 165.052 47.1166 160.208C58.5496 154.444 70.198 149.167 82.9081 145.771L83.0928 146.095C72.4445 153.064 60.6884 158.165 48.6246 162.82L30.775 170.113C24.7892 172.494 18.8342 174.916 12.8331 177.244L12.6484 176.919V176.933Z" fill="#231F20"/>
<path d="M31.2061 183.279C37.2688 178.448 46.2243 171.588 52.5025 166.784C59.5346 161.169 66.7975 155.851 75.1376 151.724L75.3222 151.927C69.0595 158.287 61.6888 163.483 54.0258 168.422L42.7621 175.999C38.9768 178.489 35.2068 181.005 31.4061 183.468L31.2214 183.265L31.2061 183.279Z" fill="#231F20"/>
<path d="M26.8672 192.52C35.0842 185.985 47.1942 176.689 55.6881 170.208C65.1976 162.603 75.0303 155.418 86.3094 149.843L86.571 150.127C78.1078 158.733 68.1213 165.769 57.75 172.44L42.501 182.697C37.3769 186.066 32.2836 189.476 27.1288 192.818L26.8672 192.534V192.52Z" fill="#231F20"/>
<path d="M41.0078 188.285C46.2242 184.131 53.918 178.232 59.3036 174.118C65.351 169.288 71.5829 164.728 78.7535 161.183L78.9228 161.359C73.5525 166.825 67.2129 171.29 60.627 175.526L50.9482 182.034C47.686 184.172 44.4546 186.337 41.1925 188.461L41.0232 188.285H41.0078Z" fill="#231F20"/>
<path d="M38.3916 194.429C44.9775 189.178 54.7178 181.723 61.5345 176.513C69.1668 170.411 77.0606 164.633 86.1239 160.154L86.3239 160.371C79.5226 167.285 71.5211 172.928 63.181 178.286L50.9325 186.526C46.8086 189.233 42.7309 191.966 38.5916 194.645L38.3916 194.429Z" fill="#231F20"/>
<path d="M35.668 202.709C43.9926 196.093 56.2565 186.675 64.8582 180.099C74.4908 172.4 84.4466 165.106 95.8795 159.464L96.1411 159.748C87.5549 168.476 77.4606 175.593 66.9509 182.358L51.5018 192.75C46.3008 196.16 41.1459 199.624 35.9296 202.993L35.668 202.709Z" fill="#231F20"/>
<path d="M38.7461 206.525C47.1477 199.841 59.5347 190.342 68.2133 183.712C77.9382 175.931 87.9863 168.584 99.527 162.887L99.7886 163.171C91.1254 171.98 80.9234 179.165 70.3214 185.985L54.7338 196.471C49.4866 199.922 44.2856 203.399 39.0077 206.809L38.7461 206.525Z" fill="#231F20"/>
<path d="M61.335 210.408C65.305 204.225 71.2446 195.362 75.3992 189.165C79.9847 181.993 84.8933 175.038 91.2176 168.895L91.4638 169.03C87.8631 176.689 82.816 183.563 77.3996 190.274L69.5519 200.45C66.8899 203.819 64.274 207.202 61.5812 210.544L61.335 210.408Z" fill="#231F20"/>
<path d="M60.5654 217.959C65.6126 210.084 73.1832 198.785 78.5073 190.883C84.3546 181.736 90.602 172.873 98.6804 165.052L99.0036 165.228C94.4181 174.998 87.9707 183.752 81.0617 192.304L71.0598 205.267C67.6745 209.556 64.32 213.872 60.8886 218.135L60.5654 217.959Z" fill="#231F20"/>
<path d="M63.6895 220.191C68.8135 212.208 76.4765 200.761 81.8622 192.764C87.7864 183.495 94.1107 174.51 102.297 166.595L102.62 166.771C97.973 176.662 91.4486 185.538 84.4473 194.198L74.3069 207.323C70.8755 211.667 67.4902 216.037 64.0126 220.367L63.6895 220.191Z" fill="#231F20"/>
<path d="M66.8281 222.654C72.0445 214.522 79.8614 202.858 85.3394 194.699C91.3713 185.254 97.8187 176.107 106.159 168.029L106.482 168.219C101.743 178.299 95.0951 187.338 87.9706 196.174L77.6456 209.556C74.1526 213.981 70.6904 218.433 67.1513 222.844L66.8281 222.654Z" fill="#231F20"/>
<path d="M77.1533 218.527C81.0156 212.492 86.8167 203.832 90.8944 197.784C95.3722 190.775 100.158 183.982 106.344 178.001L106.59 178.137C103.081 185.619 98.142 192.331 92.8486 198.88L85.1856 208.812C82.5851 212.1 80.0308 215.401 77.3995 218.676L77.1533 218.541V218.527Z" fill="#231F20"/>
<path d="M75.3223 228.852C80.7387 220.408 88.8479 208.298 94.5413 199.814C100.804 190.004 107.513 180.505 116.161 172.116L116.499 172.305C111.591 182.778 104.682 192.169 97.2803 201.343L86.5552 215.239C82.9237 219.84 79.3384 224.468 75.6608 229.041L75.3223 228.852Z" fill="#231F20"/>
<path d="M81.3848 227.836C86.2011 220.327 93.4178 209.542 98.4804 202.019C104.051 193.291 110.006 184.848 117.715 177.379L118.023 177.555C113.653 186.864 107.513 195.226 100.927 203.372L91.3867 215.726C88.1553 219.812 84.9701 223.926 81.6925 227.999L81.3848 227.823V227.836Z" fill="#231F20"/>
<path d="M89.5869 237.484C93.88 228.283 100.404 215.023 104.974 205.754C109.929 195.064 115.392 184.632 123.009 175.12L123.378 175.282C119.885 186.499 114.207 196.837 107.99 207.012L99.0657 222.37C96.0189 227.458 93.0491 232.573 89.9562 237.647L89.5869 237.484Z" fill="#231F20"/>
<path d="M94.0642 237.038C98.1573 228.27 104.359 215.659 108.713 206.836C113.437 196.661 118.623 186.729 125.87 177.677L126.224 177.826C122.901 188.502 117.499 198.339 111.575 208.027L103.081 222.641C100.188 227.485 97.3418 232.356 94.4027 237.187L94.0488 237.038H94.0642Z" fill="#231F20"/>
<path d="M105.62 238.905C108.298 230.245 112.452 217.743 115.376 209.002C118.453 198.948 122.023 189.07 127.624 179.815L127.978 179.923C126.27 190.302 122.5 200.112 118.223 209.827L112.191 224.44C110.113 229.298 108.098 234.169 105.974 239.013L105.62 238.905Z" fill="#231F20"/>
<path d="M112.176 233.953C114.299 227.106 117.577 217.215 119.885 210.3C122.332 202.344 125.148 194.537 129.579 187.216L129.856 187.297C128.502 195.511 125.532 203.264 122.147 210.95L117.377 222.505C115.73 226.348 114.13 230.191 112.468 234.02L112.191 233.939L112.176 233.953Z" fill="#231F20"/>
<path d="M116.084 237.065C118.361 229.69 121.9 219.041 124.393 211.599C127.025 203.034 130.056 194.631 134.826 186.743L135.134 186.824C133.687 195.66 130.471 204.022 126.825 212.289L121.685 224.738C119.915 228.879 118.192 233.019 116.392 237.146L116.084 237.065Z" fill="#231F20"/>
<path d="M119.1 248.404C122.239 238.255 127.101 223.615 130.533 213.372C134.149 201.586 138.319 190.031 144.889 179.179L145.305 179.3C143.304 191.465 138.888 202.953 133.872 214.332L126.793 231.463C124.362 237.146 121.992 242.856 119.515 248.526L119.1 248.404Z" fill="#231F20"/>
<path d="M129.809 235.468C131.64 229.555 134.472 221.031 136.457 215.063C138.565 208.203 140.996 201.465 144.812 195.159L145.058 195.227C143.889 202.304 141.319 209.001 138.411 215.632L134.287 225.604C132.871 228.919 131.487 232.234 130.04 235.536L129.794 235.468H129.809Z" fill="#231F20"/>
<path d="M133.456 236.997C135.318 230.963 138.211 222.262 140.257 216.16C142.412 209.15 144.889 202.277 148.797 195.822L149.044 195.89C147.859 203.116 145.228 209.962 142.242 216.728L138.042 226.917C136.595 230.299 135.195 233.696 133.718 237.065L133.471 236.997H133.456Z" fill="#231F20"/>
<path d="M137.98 240.84C140.058 234.142 143.274 224.454 145.536 217.688C147.921 209.908 150.675 202.263 155.014 195.091L155.291 195.173C153.968 203.21 151.06 210.801 147.736 218.324L143.058 229.636C141.458 233.398 139.888 237.159 138.242 240.908L137.965 240.826L137.98 240.84Z" fill="#231F20"/>
<path d="M144.212 254.831C146.089 244.466 149.136 229.46 151.29 218.974C153.444 206.931 156.183 195.064 161.384 183.671L161.815 183.752C161.308 196.011 158.322 207.837 154.737 219.609L149.798 237.281C148.074 243.154 146.412 249.04 144.643 254.912L144.212 254.831Z" fill="#231F20"/>
<path d="M156.907 239.785C157.246 234.02 157.907 225.658 158.369 219.813C158.738 213.115 159.446 206.485 161.523 199.99L161.769 200.017C162.308 206.742 161.477 213.372 160.292 219.989L158.769 229.907C158.215 233.209 157.707 236.51 157.138 239.812L156.892 239.785H156.907Z" fill="#231F20"/>
<path d="M159.154 253.87C159.723 244.128 160.831 229.988 161.631 220.11C162.262 208.798 163.447 197.581 166.956 186.607L167.356 186.648C168.279 198.028 166.863 209.218 164.878 220.408L162.309 237.173C161.385 242.748 160.524 248.336 159.539 253.925L159.139 253.884L159.154 253.87Z" fill="#231F20"/>
<path d="M163.739 245.048C164.155 237.944 164.97 227.661 165.555 220.462C166.017 212.222 166.878 204.062 169.433 196.065L169.725 196.092C170.402 204.374 169.356 212.533 167.909 220.678L166.047 232.884C165.37 236.943 164.739 241.016 164.032 245.075L163.739 245.048Z" fill="#231F20"/>
<path d="M168.925 250.907C169.417 242.261 170.417 229.731 171.125 220.963C171.679 210.936 172.726 200.991 175.849 191.249L176.203 191.276C177.019 201.37 175.757 211.288 174.003 221.22L171.725 236.077C170.91 241.029 170.14 245.982 169.279 250.921L168.925 250.894V250.907Z" fill="#231F20"/>
<path d="M176.172 245.63C176.572 238.689 177.372 228.608 177.941 221.572C178.388 213.507 179.234 205.524 181.742 197.689L182.035 197.717C182.696 205.822 181.681 213.805 180.265 221.775L178.434 233.723C177.772 237.701 177.157 241.679 176.464 245.657L176.172 245.63Z" fill="#231F20"/>
<path d="M181.912 247.741C182.343 240.339 183.189 229.609 183.805 222.099C184.282 213.507 185.174 204.996 187.852 196.647L188.159 196.675C188.867 205.321 187.775 213.818 186.267 222.316L184.328 235.049C183.62 239.284 182.974 243.533 182.22 247.768L181.912 247.741Z" fill="#231F20"/>
<path d="M184.266 258.593C184.866 248.147 186.067 232.992 186.928 222.384C187.605 210.246 188.867 198.231 192.637 186.458L193.068 186.499C194.053 198.704 192.529 210.706 190.406 222.708L187.652 240.678C186.667 246.658 185.728 252.653 184.682 258.633L184.251 258.593H184.266Z" fill="#231F20"/>
<path d="M188.313 259.96C188.929 249.216 190.175 233.642 191.052 222.749C191.745 210.273 193.053 197.92 196.931 185.823L197.377 185.863C198.392 198.407 196.823 210.734 194.638 223.074L191.806 241.544C190.791 247.7 189.837 253.857 188.76 260L188.313 259.96Z" fill="#231F20"/>
<path d="M194.269 244.859C194.638 238.607 195.346 229.528 195.869 223.195C196.269 215.929 197.038 208.731 199.285 201.694L199.546 201.721C200.131 209.028 199.223 216.213 197.946 223.385L196.3 234.142C195.7 237.728 195.146 241.313 194.53 244.886L194.269 244.859Z" fill="#231F20"/>
<path d="M202.162 253.749C201.654 245.021 201.193 232.329 200.885 223.466C200.27 213.331 200.162 203.251 202.162 193.184H202.532C204.532 203.251 204.424 213.331 203.809 223.466L203.255 238.607C203.009 243.655 202.809 248.702 202.516 253.749H202.147H202.162Z" fill="#231F20"/>
<path d="M212.056 257.984C210.302 247.944 208.055 233.344 206.516 223.128C204.455 211.477 202.977 199.841 203.931 188.001L204.347 187.96C208.009 199.381 209.24 211.044 209.886 222.817L211.287 240.366C211.687 246.225 212.133 252.071 212.471 257.943L212.056 257.984Z" fill="#231F20"/>
<path d="M215.518 251.61C214.056 243.302 212.21 231.192 210.933 222.735C209.225 213.087 207.994 203.44 208.794 193.643L209.148 193.616C212.179 203.074 213.195 212.749 213.733 222.492L214.887 237.037C215.21 241.895 215.595 246.739 215.872 251.597L215.518 251.624V251.61Z" fill="#231F20"/>
<path d="M220.427 247.484C219.149 240.217 217.534 229.636 216.41 222.235C214.918 213.805 213.841 205.375 214.533 196.796L214.841 196.769C217.487 205.037 218.38 213.493 218.857 222.018L219.873 234.724C220.15 238.973 220.488 243.208 220.734 247.457L220.427 247.484Z" fill="#231F20"/>
<path d="M227.167 252.287C225.628 243.479 223.659 230.678 222.305 221.707C220.489 211.491 219.196 201.275 220.043 190.897L220.412 190.87C223.628 200.883 224.705 211.126 225.274 221.45L226.505 236.848C226.844 241.99 227.244 247.118 227.552 252.26L227.183 252.287H227.167Z" fill="#231F20"/>
<path d="M230.429 246.807C229.151 239.473 227.505 228.811 226.382 221.342C224.874 212.831 223.797 204.333 224.489 195.687L224.797 195.66C227.474 204.008 228.367 212.519 228.844 221.125L229.859 233.953C230.152 238.228 230.475 242.504 230.721 246.794L230.413 246.821L230.429 246.807Z" fill="#231F20"/>
<path d="M235.568 243.127C234.445 236.713 233.014 227.363 232.029 220.828C230.706 213.385 229.767 205.93 230.383 198.366L230.66 198.339C232.998 205.646 233.783 213.101 234.199 220.638L235.091 231.869C235.337 235.617 235.63 239.365 235.845 243.113L235.568 243.14V243.127Z" fill="#231F20"/>
<path d="M241.062 239.365C240.108 233.871 238.877 225.888 238.031 220.286C236.908 213.913 236.092 207.54 236.615 201.072L236.846 201.045C238.846 207.296 239.523 213.683 239.877 220.124L240.647 229.731C240.862 232.938 241.108 236.131 241.293 239.351L241.062 239.379V239.365Z" fill="#231F20"/>
<path d="M245.878 245.102C244.616 237.863 243.001 227.322 241.877 219.948C240.385 211.545 239.323 203.142 240.015 194.604L240.323 194.577C242.97 202.818 243.847 211.234 244.324 219.731L245.339 232.397C245.616 236.618 245.955 240.84 246.201 245.075L245.893 245.102H245.878Z" fill="#231F20"/>
<path d="M253.602 255.44C251.787 245.062 249.478 229.974 247.878 219.407C245.739 207.364 244.216 195.335 245.201 183.103L245.632 183.062C249.417 194.875 250.694 206.931 251.356 219.095L252.802 237.241C253.202 243.289 253.679 249.351 254.033 255.399L253.602 255.44Z" fill="#231F20"/>
<path d="M267.867 246.279C264.281 238.093 259.342 226.145 255.895 217.769C251.71 208.284 248.032 198.704 246.37 188.556L246.724 188.461C252.202 197.5 255.68 207.147 258.696 216.971L263.543 231.557C265.097 236.429 266.712 241.3 268.22 246.185L267.867 246.279Z" fill="#231F20"/>
<path d="M274.483 252.301C270.006 242.085 263.851 227.16 259.542 216.714C254.326 204.874 249.725 192.913 247.647 180.248L248.078 180.126C254.91 191.411 259.25 203.454 263.02 215.713L269.082 233.912C271.021 240.001 273.037 246.077 274.914 252.179L274.483 252.301Z" fill="#231F20"/>
<path d="M274.422 238.269C271.529 231.652 267.529 221.991 264.743 215.226C261.358 207.554 258.388 199.8 257.034 191.614L257.311 191.533C261.743 198.84 264.559 206.633 266.99 214.576L270.914 226.362C272.176 230.299 273.468 234.237 274.699 238.188L274.422 238.269Z" fill="#231F20"/>
<path d="M283.962 247.984C279.669 238.174 273.745 223.858 269.621 213.818C264.62 202.452 260.204 190.964 258.203 178.813L258.619 178.691C265.189 189.53 269.344 201.085 272.96 212.857L278.776 230.326C280.638 236.172 282.562 242.003 284.377 247.862L283.962 247.984Z" fill="#231F20"/>
<path d="M283.178 232.667C280.623 226.835 277.115 218.324 274.653 212.37C271.683 205.618 269.052 198.785 267.867 191.573L268.113 191.505C272.006 197.946 274.484 204.806 276.638 211.802L280.085 222.18C281.193 225.658 282.331 229.122 283.409 232.599L283.162 232.667H283.178Z" fill="#231F20"/>
<path d="M289.117 236.063C285.993 228.933 281.685 218.5 278.684 211.207C275.037 202.939 271.837 194.577 270.375 185.741L270.683 185.66C275.453 193.549 278.484 201.952 281.116 210.517L285.347 223.222C286.701 227.471 288.101 231.72 289.425 235.982L289.117 236.063Z" fill="#231F20"/>
<path d="M294.226 235.387C291.01 228.053 286.578 217.323 283.485 209.827C279.731 201.316 276.438 192.723 274.945 183.63L275.253 183.536C280.162 191.641 283.285 200.287 285.994 209.096L290.348 222.167C291.749 226.537 293.18 230.908 294.549 235.292L294.241 235.387H294.226Z" fill="#231F20"/>
<path d="M300.504 235.847C297.042 227.931 292.256 216.349 288.917 208.257C284.87 199.069 281.316 189.801 279.7 179.977L280.039 179.882C285.347 188.637 288.702 197.973 291.626 207.472L296.319 221.585C297.827 226.308 299.381 231.016 300.843 235.752L300.504 235.847Z" fill="#231F20"/>
<path d="M309.028 228.269C305.12 221.856 299.673 212.465 295.857 205.889C291.317 198.461 287.163 190.91 284.608 182.71L284.885 182.602C290.44 189.544 294.426 197.162 298.057 204.982L303.751 216.538C305.597 220.408 307.49 224.264 309.305 228.148L309.028 228.256V228.269Z" fill="#231F20"/>
<path d="M325.431 234.359C318.276 225.455 308.167 212.371 301.104 203.196C292.764 192.872 285.008 182.318 279.469 170.532L279.853 170.316C289.594 179.747 297.134 190.437 304.181 201.478L315.091 217.756C318.661 223.222 322.292 228.648 325.816 234.142L325.431 234.359Z" fill="#231F20"/>
<path d="M321.431 221.964C316.615 215.97 309.813 207.161 305.059 200.991C299.458 194.049 294.226 186.932 290.502 179.003L290.764 178.854C297.319 185.2 302.397 192.399 307.136 199.827L314.476 210.787C316.876 214.468 319.323 218.121 321.693 221.815L321.431 221.964Z" fill="#231F20"/>
<path d="M329.309 221.802C323.816 214.969 316.061 204.929 310.644 197.892C304.243 189.977 298.288 181.872 294.041 172.833L294.333 172.67C301.812 179.91 307.597 188.109 312.999 196.58L321.369 209.069C324.108 213.264 326.893 217.431 329.602 221.639L329.309 221.802Z" fill="#231F20"/>
<path d="M329.894 213.71C325.647 208.419 319.646 200.653 315.446 195.213C310.506 189.083 305.89 182.819 302.612 175.823L302.843 175.701C308.629 181.303 313.107 187.649 317.292 194.198L323.77 203.859C325.894 207.107 328.048 210.327 330.141 213.588L329.91 213.71H329.894Z" fill="#231F20"/>
<path d="M333.849 212.709C329.402 207.188 323.124 199.056 318.754 193.373C313.584 186.972 308.767 180.41 305.336 173.103L305.582 172.968C311.629 178.827 316.307 185.457 320.677 192.304L327.448 202.411C329.664 205.808 331.91 209.177 334.095 212.587L333.849 212.722V212.709Z" fill="#231F20"/>
<path d="M345.528 220.99C338.711 212.52 329.094 200.071 322.385 191.343C314.46 181.533 307.059 171.48 301.812 160.263L302.181 160.06C311.46 169.031 318.63 179.206 325.324 189.706L335.71 205.199C339.111 210.395 342.558 215.564 345.912 220.787L345.543 220.99H345.528Z" fill="#231F20"/>
<path d="M340.435 207.865C336.173 202.574 330.171 194.794 325.971 189.341C321.016 183.211 316.4 176.933 313.122 169.924L313.353 169.802C319.139 175.404 323.632 181.763 327.817 188.326L334.295 198.001C336.419 201.248 338.573 204.482 340.666 207.743L340.435 207.865Z" fill="#231F20"/>
<path d="M350.037 203.075C344.528 198.149 336.695 190.856 331.218 185.755C324.816 180.045 318.738 174.132 313.922 167.244L314.137 167.082C321.323 172.116 327.278 178.137 332.956 184.402L341.666 193.617C344.528 196.715 347.421 199.787 350.267 202.912L350.052 203.075H350.037Z" fill="#231F20"/>
<path d="M361.531 198.704C353.976 193.819 343.143 186.54 335.588 181.452C326.802 175.796 318.354 169.842 311.168 162.549L311.383 162.319C320.939 167.041 329.264 173.13 337.327 179.571L349.591 188.962C353.638 192.128 357.715 195.267 361.747 198.474L361.531 198.704Z" fill="#231F20"/>
<path d="M360.931 191.587C354.668 187.541 345.712 181.52 339.45 177.298C332.171 172.616 325.17 167.677 319.23 161.643L319.415 161.453C327.34 165.364 334.233 170.411 340.896 175.742L351.052 183.522C354.406 186.147 357.792 188.745 361.115 191.397L360.931 191.587Z" fill="#231F20"/>
<path d="M360.915 184.713C355.807 181.411 348.498 176.499 343.389 173.049C337.449 169.233 331.741 165.201 326.894 160.276L327.047 160.113C333.51 163.307 339.127 167.42 344.574 171.777L352.852 178.123C355.591 180.261 358.346 182.385 361.069 184.55L360.915 184.713Z" fill="#231F20"/>
<path d="M378.196 190.22C369.056 184.307 355.961 175.512 346.821 169.342C336.188 162.495 325.971 155.296 317.292 146.474L317.554 146.19C329.125 151.9 339.189 159.275 348.929 167.068L363.762 178.435C368.656 182.277 373.595 186.066 378.458 189.936L378.196 190.22Z" fill="#231F20"/>
<path d="M371.409 179.044C365.362 175.133 356.699 169.315 350.652 165.228C343.619 160.695 336.849 155.932 331.109 150.101L331.279 149.911C338.926 153.686 345.589 158.571 352.036 163.726L361.854 171.25C365.101 173.794 368.363 176.297 371.579 178.854L371.409 179.044Z" fill="#231F20"/>
<path d="M387.089 172.522C377.641 168.841 364.023 163.293 354.514 159.383C343.527 155.134 332.833 150.507 323.139 144.16L323.308 143.863C334.864 146.948 345.466 151.751 355.883 157.001L371.61 164.538C376.826 167.109 382.058 169.626 387.259 172.224L387.089 172.522Z" fill="#231F20"/>
<path d="M393.691 160.1C383.043 158.219 367.656 155.229 356.9 153.132C344.544 150.967 332.372 148.355 320.785 143.782L320.877 143.443C333.526 144.296 345.651 147.11 357.669 150.412L375.75 154.999C381.766 156.596 387.783 158.125 393.784 159.762L393.691 160.1Z" fill="#231F20"/>
<path d="M389.922 155.892C380.643 154.255 367.225 151.643 357.838 149.816C347.067 147.935 336.45 145.649 326.355 141.657L326.448 141.359C337.481 142.104 348.037 144.566 358.531 147.435L374.288 151.44C379.52 152.82 384.782 154.173 389.998 155.594L389.906 155.892H389.922Z" fill="#231F20"/>
<path d="M385.505 149.465C377.95 148.125 367.025 146.014 359.393 144.512C350.622 142.983 341.974 141.116 333.757 137.869L333.834 137.625C342.82 138.234 351.406 140.237 359.946 142.577L372.78 145.838C377.042 146.961 381.32 148.057 385.582 149.221L385.505 149.465Z" fill="#231F20"/>
<path d="M399.893 149.14C388.414 147.11 371.826 143.89 360.224 141.616C346.898 139.289 333.772 136.461 321.293 131.522L321.401 131.157C335.049 132.077 348.098 135.121 361.07 138.68L380.566 143.632C387.044 145.351 393.538 147.002 400 148.774L399.893 149.14Z" fill="#231F20"/>
<path d="M387.136 140.805C379.811 139.506 369.24 137.463 361.839 136.015C353.345 134.526 344.974 132.727 337.019 129.587L337.08 129.357C345.774 129.939 354.099 131.874 362.377 134.147L374.81 137.3C378.934 138.396 383.074 139.452 387.197 140.575L387.136 140.805Z" fill="#231F20"/>
<path d="M398.061 130.291C387.982 130.738 373.364 131.157 363.116 131.428C351.422 131.969 339.789 132.064 328.171 130.291V129.966C339.789 128.18 351.422 128.275 363.116 128.83L380.581 129.317C386.397 129.533 392.229 129.709 398.046 129.966V130.291H398.061Z" fill="#231F20"/>
<path d="M390.644 115.867C382.258 118.154 370.025 121.266 361.454 123.431C351.729 126.096 341.942 128.383 331.71 129.06L331.633 128.789C340.988 125.095 350.821 122.971 360.823 121.225L375.672 118.343C380.642 117.423 385.582 116.476 390.567 115.596L390.644 115.867Z" fill="#231F20"/>
<path d="M384.721 110.887C377.535 112.849 367.04 115.515 359.7 117.369C351.36 119.655 342.974 121.604 334.203 122.199L334.142 121.969C342.159 118.803 350.591 116.99 359.162 115.488L371.887 113.012C376.15 112.227 380.397 111.415 384.659 110.657L384.721 110.887Z" fill="#231F20"/>
<path d="M394.722 103.459C384.289 106.3 369.056 110.17 358.392 112.876C346.282 116.192 334.095 119.033 321.37 119.885L321.277 119.547C332.926 114.947 345.174 112.308 357.607 110.13L376.088 106.53C382.274 105.394 388.429 104.203 394.63 103.107L394.722 103.445V103.459Z" fill="#231F20"/>
<path d="M387.383 100.996C378.719 103.35 366.071 106.571 357.223 108.817C347.175 111.577 337.065 113.932 326.494 114.635L326.417 114.351C336.08 110.535 346.252 108.343 356.577 106.53L371.918 103.553C377.042 102.606 382.166 101.618 387.306 100.712L387.383 100.996Z" fill="#231F20"/>
<path d="M396.076 94.1762C384.566 97.3154 367.747 101.591 355.991 104.568C342.635 108.235 329.186 111.361 315.137 112.308L315.029 111.929C327.878 106.855 341.388 103.946 355.114 101.537L375.518 97.5725C382.335 96.3141 389.136 95.0016 395.968 93.7974L396.076 94.1762Z" fill="#231F20"/>
<path d="M377.965 87.2754C370.949 90.7935 360.639 95.7324 353.422 99.1828C345.282 103.283 336.988 107.044 327.94 109.453L327.802 109.223C335.388 104.257 343.743 100.631 352.345 97.3155L365.055 92.1196C369.317 90.4282 373.549 88.7097 377.827 87.0454L377.965 87.2754Z" fill="#231F20"/>
<path d="M379.842 70.2263C371.102 77.1812 358.207 87.0725 349.174 93.9733C339.049 102.065 328.601 109.724 316.584 115.65L316.307 115.352C325.324 106.192 335.941 98.7092 346.974 91.6054L363.208 80.6858C368.671 77.1001 374.087 73.4737 379.565 69.915L379.842 70.2127V70.2263Z" fill="#231F20"/>
<path d="M371.779 68.7517C364.147 74.8272 352.898 83.4465 345.004 89.4814C336.172 96.5446 327.047 103.229 316.553 108.398L316.307 108.141C324.17 100.144 333.433 93.6083 343.081 87.4111L357.238 77.8852C361.992 74.7595 366.732 71.5932 371.517 68.4946L371.763 68.7517H371.779Z" fill="#231F20"/>
<path d="M359.269 73.1355C354.391 77.0189 347.19 82.5396 342.143 86.396C336.496 90.9154 330.648 95.1912 323.955 98.4928L323.801 98.3304C328.833 93.2157 334.757 89.0346 340.927 85.0699L349.99 78.9809C353.037 76.9783 356.053 74.9487 359.131 72.9731L359.285 73.1355H359.269Z" fill="#231F20"/>
<path d="M360.746 64.7463C354.33 69.861 344.866 77.1137 338.234 82.1879C330.802 88.128 323.124 93.7434 314.306 98.1004L314.106 97.8839C320.723 91.159 328.509 85.6654 336.618 80.4424L348.528 72.4319C352.529 69.7934 356.515 67.1278 360.546 64.5298L360.746 64.7463Z" fill="#231F20"/>
<path d="M357.715 59.6993C351.021 65.0305 341.158 72.5944 334.234 77.8851C326.478 84.0823 318.477 89.9413 309.275 94.4877L309.06 94.2577C315.953 87.2486 324.093 81.5114 332.541 76.0719L344.959 67.7097C349.129 64.9629 353.283 62.189 357.484 59.4692L357.7 59.6993H357.715Z" fill="#231F20"/>
<path d="M345.666 54.192C340.696 59.6586 333.31 67.4796 328.124 72.9461C322.369 79.3057 316.337 85.4083 309.059 90.5095L308.844 90.3336C313.722 83.3651 319.892 77.3708 326.386 71.5795L335.864 62.7572C339.065 59.848 342.235 56.9118 345.451 54.0161L345.666 54.192Z" fill="#231F20"/>
<path d="M337.835 49.1993C333.911 55.3289 328.017 64.1241 323.878 70.2807C319.339 77.3981 314.461 84.2989 308.183 90.3879L307.937 90.2526C311.506 82.6481 316.523 75.8285 321.893 69.1712L329.679 59.077C332.31 55.7348 334.926 52.3791 337.588 49.064L337.835 49.1993Z" fill="#231F20"/>
<path d="M338.204 39.4702C332.926 47.7106 325.001 59.5368 319.446 67.8043C313.338 77.3708 306.798 86.6531 298.335 94.8259L297.996 94.6365C302.797 84.4205 309.537 75.2599 316.754 66.3024L327.217 52.7442C330.772 48.2519 334.265 43.746 337.85 39.2808L338.188 39.4702H338.204Z" fill="#231F20"/>
<path d="M335.71 35.5462C330.078 44.3279 321.646 56.9254 315.722 65.7341C309.213 75.9366 302.242 85.8142 293.241 94.5283L292.887 94.3253C297.995 83.4328 305.181 73.6769 312.875 64.1374L324.031 49.6862C327.817 44.9097 331.54 40.0927 335.356 35.3433L335.71 35.5462Z" fill="#231F20"/>
<path d="M330.494 33.124C324.924 41.7974 316.584 54.246 310.737 62.9601C304.305 73.0407 297.411 82.7967 288.517 91.416L288.163 91.2265C293.21 80.4693 300.304 70.8216 307.921 61.3905L318.938 47.1152C322.677 42.3928 326.355 37.6299 330.14 32.9346L330.494 33.124Z" fill="#231F20"/>
<path d="M318.385 40.8908C314.799 46.4792 309.429 54.5031 305.659 60.1185C301.52 66.6134 297.073 72.9054 291.333 78.4531L291.103 78.3314C294.365 71.4034 298.935 65.1791 303.828 59.1037L310.937 49.9025C313.338 46.858 315.723 43.8 318.154 40.769L318.385 40.8908Z" fill="#231F20"/>
<path d="M316.507 34.7885C312.229 41.4593 305.828 51.0258 301.335 57.7102C296.396 65.45 291.102 72.9597 284.27 79.5764L283.993 79.4276C287.871 71.1601 293.318 63.745 299.165 56.5059L307.628 45.5322C310.491 41.9058 313.322 38.2525 316.23 34.6396L316.507 34.7885Z" fill="#231F20"/>
<path d="M310.999 35.7764C307.275 41.5813 301.689 49.9029 297.781 55.7348C293.472 62.4733 288.871 69.0088 282.916 74.773L282.686 74.6377C286.071 67.4392 290.81 60.9849 295.903 54.6794L303.274 45.1264C305.767 41.9601 308.244 38.7803 310.768 35.6411L310.999 35.7764Z" fill="#231F20"/>
<path d="M309.229 21.9612C304.874 31.2977 298.257 44.734 293.61 54.1381C288.578 64.9901 283.039 75.5579 275.314 85.2055L274.93 85.0432C278.469 73.6635 284.239 63.1769 290.548 52.8662L299.596 37.2919C302.673 32.1231 305.705 26.9406 308.844 21.7988L309.229 21.9612Z" fill="#231F20"/>
<path d="M296.241 25.2222C293.826 33.0161 290.102 44.2604 287.471 52.122C284.701 61.1608 281.5 70.0371 276.453 78.3723L276.13 78.2776C277.669 68.9411 281.054 60.1189 284.901 51.3778L290.333 38.2255C292.195 33.855 294.01 29.4845 295.918 25.1274L296.241 25.2222Z" fill="#231F20"/>
<path d="M291.887 24.5185C289.517 32.1636 285.855 43.1915 283.285 50.9042C280.562 59.7806 277.423 68.4946 272.468 76.6539L272.16 76.5591C273.668 67.3986 276.992 58.7387 280.762 50.1735L286.086 37.2784C287.917 32.989 289.702 28.6997 291.564 24.4238L291.872 24.5185H291.887Z" fill="#231F20"/>
<path d="M288.533 20.9731C285.963 29.2948 281.962 41.3104 279.162 49.7132C276.192 59.3744 272.776 68.8597 267.39 77.7632L267.052 77.6684C268.698 67.696 272.314 58.2648 276.423 48.9284L282.224 34.8831C284.224 30.2149 286.163 25.5331 288.194 20.8784L288.533 20.9731Z" fill="#231F20"/>
<path d="M281.9 22.5426C279.607 29.9441 276.053 40.6337 273.56 48.1164C270.929 56.7086 267.882 65.152 263.081 73.0677L262.773 72.9865C264.235 64.1101 267.451 55.7209 271.114 47.4128L276.268 34.91C278.038 30.756 279.777 26.5884 281.577 22.4614L281.885 22.5426H281.9Z" fill="#231F20"/>
<path d="M277.376 18.9975C274.899 26.9944 271.067 38.5365 268.374 46.6145C265.528 55.8968 262.235 65.0168 257.064 73.5685L256.741 73.4737C258.311 63.8802 261.804 54.8279 265.743 45.8568L271.313 32.3527C273.221 27.8739 275.099 23.3681 277.053 18.9028L277.376 18.9975Z" fill="#231F20"/>
<path d="M270.421 21.6769C268.328 28.4289 265.082 38.1984 262.804 45.018C260.404 52.8661 257.619 60.5653 253.249 67.7909L252.972 67.7097C254.31 59.6046 257.249 51.946 260.589 44.3685L265.297 32.9618C266.913 29.1731 268.498 25.3709 270.144 21.5957L270.421 21.6769Z" fill="#231F20"/>
<path d="M268.498 10.4188C265.528 20.0123 260.927 33.8547 257.696 43.5429C254.28 54.679 250.34 65.6121 244.124 75.8687L243.724 75.7605C245.616 64.259 249.786 53.3936 254.526 42.6363L261.219 26.4396C263.512 21.0678 265.759 15.6689 268.098 10.3105L268.498 10.4188Z" fill="#231F20"/>
<path d="M258.927 8.51122C257.173 18.186 254.326 32.1906 252.31 41.9736C250.295 53.2044 247.74 64.2864 242.893 74.9083L242.493 74.8271C242.97 63.3798 245.755 52.352 249.11 41.3647L253.711 24.8703C255.311 19.3902 256.865 13.8966 258.527 8.4165L258.927 8.49769V8.51122Z" fill="#231F20"/>
<path d="M249.956 4.04596C249.34 14.8032 248.094 30.4045 247.217 41.3241C246.524 53.8133 245.216 66.1943 241.339 78.3182L240.892 78.2776C239.877 65.7207 241.446 53.3668 243.631 40.9994L246.463 22.4888C247.478 16.3322 248.432 10.162 249.509 4.00537L249.956 4.04596Z" fill="#231F20"/>
<path d="M245.17 5.65583C244.586 15.8312 243.416 30.5801 242.585 40.8908C241.923 52.7034 240.692 64.4078 237.03 75.8552L236.599 75.8146C235.63 63.9343 237.123 52.2569 239.2 40.5796L241.877 23.0839C242.847 17.2655 243.739 11.4336 244.77 5.61523L245.201 5.65583H245.17Z" fill="#231F20"/>
<path d="M237.492 17.8342C237.123 24.3156 236.369 33.7197 235.845 40.2958C235.43 47.8191 234.645 55.2883 232.306 62.5815L232.029 62.5545C231.414 54.9906 232.368 47.5349 233.676 40.0928L235.384 28.9432C235.999 25.2357 236.569 21.5146 237.23 17.8071L237.507 17.8342H237.492Z" fill="#231F20"/>
<path d="M235.353 6.42731C234.799 16.1291 233.676 30.1879 232.875 40.025C232.245 51.2829 231.075 62.446 227.567 73.3656L227.167 73.325C226.243 61.9995 227.659 50.8634 229.644 39.7273L232.198 23.0435C233.122 17.4958 233.983 11.9345 234.953 6.38672L235.353 6.42731Z" fill="#231F20"/>
<path d="M228.613 5.16901C228.044 15.0602 226.905 29.3897 226.09 39.4162C225.459 50.8906 224.259 62.2702 220.689 73.4063L220.273 73.3657C219.335 61.8237 220.781 50.4711 222.797 39.1185L225.397 22.1099C226.336 16.4539 227.213 10.7844 228.198 5.12842L228.613 5.16901Z" fill="#231F20"/>
<path d="M223.258 16.6297C222.889 23.0976 222.135 32.4611 221.612 39.0102C221.196 46.5064 220.412 53.9485 218.073 61.2282L217.796 61.2012C217.18 53.6643 218.119 46.2358 219.442 38.8207L221.135 27.7117C221.75 24.0177 222.32 20.3102 222.966 16.6162L223.243 16.6433L223.258 16.6297Z" fill="#231F20"/>
<path d="M217.457 7.5505C216.934 16.4675 215.918 29.3897 215.18 38.442C214.61 48.7933 213.518 59.0499 210.302 69.0899L209.932 69.0629C209.086 58.6574 210.394 48.4144 212.21 38.1714L214.549 22.8406C215.395 17.7394 216.18 12.6247 217.072 7.52344L217.442 7.5505H217.457Z" fill="#231F20"/>
<path d="M211.718 8.40304C211.225 16.9276 210.241 29.2815 209.548 37.9279C208.994 47.8191 207.963 57.6292 204.886 67.2227L204.532 67.1957C203.732 57.2503 204.963 47.4538 206.701 37.6708L208.948 23.0166C209.764 18.1319 210.518 13.2472 211.364 8.37598L211.718 8.40304Z" fill="#231F20"/>
<path d="M206.286 0.0405933C205.655 10.8249 204.424 26.4533 203.532 37.3864C202.839 49.9027 201.531 62.3107 197.638 74.4616L197.192 74.421C196.176 61.8371 197.746 49.4562 199.946 37.0752L202.778 18.5241C203.793 12.3539 204.763 6.17018 205.84 0L206.286 0.0405933Z" fill="#231F20"/>
<path d="M200 215C285.604 215 355 176.944 355 130C355 83.0558 285.604 45 200 45C114.396 45 45 83.0558 45 130C45 176.944 114.396 215 200 215Z" fill="white"/>
</g>
<defs>
<clipPath id="clip0_1129_28008">
<rect width="400" height="260" fill="white"/>
</clipPath>
</defs>
</svg>
