<svg width="310" height="120" viewBox="0 0 310 120" fill="none" xmlns="http://www.w3.org/2000/svg">
<mask id="path-1-inside-1_340_16243" fill="white">
<path fill-rule="evenodd" clip-rule="evenodd" d="M60 120C79.331 120 96.5268 110.858 107.5 96.6619C118.473 110.858 135.669 120 155 120C174.331 120 191.527 110.858 202.5 96.6619C213.473 110.858 230.669 120 250 120C283.137 120 310 93.1371 310 60C310 26.8629 283.137 0 250 0C230.669 0 213.473 9.14183 202.5 23.3381C191.527 9.14183 174.331 0 155 0C135.669 0 118.473 9.14183 107.5 23.3381C96.5268 9.14183 79.331 0 60 0C26.8629 0 0 26.8629 0 60C0 93.1371 26.8629 120 60 120Z"/>
</mask>
<path fill-rule="evenodd" clip-rule="evenodd" d="M60 120C79.331 120 96.5268 110.858 107.5 96.6619C118.473 110.858 135.669 120 155 120C174.331 120 191.527 110.858 202.5 96.6619C213.473 110.858 230.669 120 250 120C283.137 120 310 93.1371 310 60C310 26.8629 283.137 0 250 0C230.669 0 213.473 9.14183 202.5 23.3381C191.527 9.14183 174.331 0 155 0C135.669 0 118.473 9.14183 107.5 23.3381C96.5268 9.14183 79.331 0 60 0C26.8629 0 0 26.8629 0 60C0 93.1371 26.8629 120 60 120Z" fill="white"/>
<path d="M107.5 96.6619L113.434 92.0752L107.5 84.3983L101.566 92.0752L107.5 96.6619ZM202.5 96.6619L208.434 92.0752L202.5 84.3983L196.566 92.0752L202.5 96.6619ZM202.5 23.3381L196.566 27.9248L202.5 35.6017L208.434 27.9248L202.5 23.3381ZM107.5 23.3381L101.566 27.9248L107.5 35.6017L113.434 27.9248L107.5 23.3381ZM101.566 92.0752C91.9519 104.513 76.9104 112.5 60 112.5V127.5C81.7516 127.5 101.102 117.203 113.434 101.249L101.566 92.0752ZM155 112.5C138.09 112.5 123.048 104.513 113.434 92.0752L101.566 101.249C113.898 117.203 133.248 127.5 155 127.5V112.5ZM196.566 92.0752C186.952 104.513 171.91 112.5 155 112.5V127.5C176.752 127.5 196.102 117.203 208.434 101.249L196.566 92.0752ZM250 112.5C233.09 112.5 218.048 104.513 208.434 92.0752L196.566 101.249C208.898 117.203 228.248 127.5 250 127.5V112.5ZM302.5 60C302.5 88.9949 278.995 112.5 250 112.5V127.5C287.279 127.5 317.5 97.2792 317.5 60H302.5ZM250 7.5C278.995 7.5 302.5 31.0051 302.5 60H317.5C317.5 22.7208 287.279 -7.5 250 -7.5V7.5ZM208.434 27.9248C218.048 15.4868 233.09 7.5 250 7.5V-7.5C228.248 -7.5 208.898 2.79681 196.566 18.7513L208.434 27.9248ZM155 7.5C171.91 7.5 186.952 15.4868 196.566 27.9248L208.434 18.7513C196.102 2.79681 176.752 -7.5 155 -7.5V7.5ZM113.434 27.9248C123.048 15.4868 138.09 7.5 155 7.5V-7.5C133.248 -7.5 113.898 2.79681 101.566 18.7513L113.434 27.9248ZM60 7.5C76.9104 7.5 91.9519 15.4868 101.566 27.9248L113.434 18.7513C101.102 2.79681 81.7516 -7.5 60 -7.5V7.5ZM7.5 60C7.5 31.0051 31.0051 7.5 60 7.5V-7.5C22.7208 -7.5 -7.5 22.7208 -7.5 60H7.5ZM60 112.5C31.0051 112.5 7.5 88.9949 7.5 60H-7.5C-7.5 97.2792 22.7208 127.5 60 127.5V112.5Z" fill="#212121" mask="url(#path-1-inside-1_340_16243)"/>
</svg>
