<svg width="200" height="290" viewBox="0 0 200 290" fill="none" xmlns="http://www.w3.org/2000/svg">
<mask id="path-1-inside-1_340_16264" fill="white">
<path d="M200 142.795L198.568 126.051C197.266 110.571 194.397 95.1599 189.978 79.9119C184.423 61.0688 176.377 42.805 162.661 25.6091C155.703 16.9206 147.142 8.77509 132.538 4.91958C98.464 -4.13089 62.6429 -1.68717 39.6499 20.6313C28.1963 31.8539 21.9827 44.4521 16.7427 57.2676C10.4218 72.8736 5.95199 88.756 3.37066 104.783C-0.0413105 126.718 -0.864431 148.784 0.908135 170.797C2.08213 187.305 3.05567 203.795 7.52257 220.086C12.419 237.987 18.4321 255.763 36.1565 270.768C56.4007 287.91 87.9553 293.937 119.71 287.457C135.917 284.145 147.342 276.705 156.935 268.089C174.802 252.106 184.709 234.059 191.295 215.162C196.401 198.927 199.105 182.426 199.37 165.873C199.714 158.325 199.685 150.777 199.914 143.247"/>
</mask>
<path d="M200 142.795L198.568 126.051C197.266 110.571 194.397 95.1599 189.978 79.9119C184.423 61.0688 176.377 42.805 162.661 25.6091C155.703 16.9206 147.142 8.77509 132.538 4.91958C98.464 -4.13089 62.6429 -1.68717 39.6499 20.6313C28.1963 31.8539 21.9827 44.4521 16.7427 57.2676C10.4218 72.8736 5.95199 88.756 3.37066 104.783C-0.0413105 126.718 -0.864431 148.784 0.908135 170.797C2.08213 187.305 3.05567 203.795 7.52257 220.086C12.419 237.987 18.4321 255.763 36.1565 270.768C56.4007 287.91 87.9553 293.937 119.71 287.457C135.917 284.145 147.342 276.705 156.935 268.089C174.802 252.106 184.709 234.059 191.295 215.162C196.401 198.927 199.105 182.426 199.37 165.873C199.714 158.325 199.685 150.777 199.914 143.247" fill="white"/>
<path d="M195.018 143.221C195.253 145.972 197.675 148.012 200.426 147.776C203.177 147.541 205.217 145.12 204.982 142.369L195.018 143.221ZM198.568 126.051L193.586 126.47L193.586 126.477L198.568 126.051ZM189.978 79.9119L194.781 78.5202C194.778 78.5128 194.776 78.5054 194.774 78.498L189.978 79.9119ZM162.661 25.6091L166.57 22.4913L166.564 22.4836L162.661 25.6091ZM132.538 4.91958L131.255 9.75203L131.262 9.75394L132.538 4.91958ZM39.6499 20.6313L36.1674 17.0435C36.1617 17.049 36.1561 17.0544 36.1505 17.0599L39.6499 20.6313ZM16.7427 57.2676L12.1146 55.3753C12.1125 55.3803 12.1105 55.3854 12.1084 55.3905L16.7427 57.2676ZM3.37066 104.783L-1.56572 103.987C-1.56714 103.996 -1.56855 104.005 -1.56994 104.014L3.37066 104.783ZM0.908135 170.797L5.89555 170.442C5.89443 170.426 5.89326 170.411 5.89201 170.395L0.908135 170.797ZM7.52257 220.086L12.3454 218.766L12.3446 218.763L7.52257 220.086ZM36.1565 270.768L39.3875 266.952L39.3872 266.952L36.1565 270.768ZM119.71 287.457L120.71 292.356L120.712 292.356L119.71 287.457ZM156.935 268.089L153.601 264.363L153.593 264.369L156.935 268.089ZM191.295 215.162L196.017 216.808C196.034 216.759 196.05 216.711 196.065 216.662L191.295 215.162ZM199.37 165.873L194.375 165.646C194.373 165.695 194.371 165.744 194.371 165.793L199.37 165.873ZM204.912 143.399C204.996 140.639 202.826 138.333 200.066 138.249C197.306 138.165 195 140.335 194.916 143.095L204.912 143.399ZM204.982 142.369L203.55 125.625L193.586 126.477L195.018 143.221L204.982 142.369ZM203.551 125.632C202.22 109.816 199.289 94.0787 194.781 78.5202L185.176 81.3036C189.504 96.2412 192.312 111.327 193.586 126.47L203.551 125.632ZM194.774 78.498C189.091 59.2196 180.794 40.3238 166.57 22.4913L158.752 28.7268C171.96 45.2861 179.756 62.918 185.182 81.3257L194.774 78.498ZM166.564 22.4836C159.243 13.3414 149.844 4.31732 133.815 0.0852335L131.262 9.75394C144.439 13.2329 152.164 20.4998 158.759 28.7345L166.564 22.4836ZM133.822 0.0871396C98.9893 -9.16474 60.9883 -7.04921 36.1674 17.0435L43.1324 24.2191C64.2975 3.67488 97.9387 0.90296 131.255 9.75203L133.822 0.0871396ZM36.1505 17.0599C23.9689 28.9959 17.4431 42.3435 12.1146 55.3753L21.3708 59.1599C26.5224 46.5608 32.4237 34.7118 43.1492 24.2027L36.1505 17.0599ZM12.1084 55.3905C5.65168 71.3317 1.07753 87.5765 -1.56572 103.987L8.30703 105.578C10.8265 89.9355 15.1918 74.4154 21.377 59.1446L12.1084 55.3905ZM-1.56994 104.014C-5.04177 126.334 -5.87989 148.793 -4.07574 171.198L5.89201 170.395C4.15103 148.775 4.95915 127.102 8.31124 105.551L-1.56994 104.014ZM-4.07926 171.151C-2.91502 187.522 -1.92286 204.546 2.70055 221.408L12.3446 218.763C8.03422 203.043 7.07928 187.087 5.89555 170.442L-4.07926 171.151ZM2.69971 221.405C7.65119 239.508 13.9879 258.551 32.9258 274.584L39.3872 266.952C22.8763 252.974 17.1868 236.467 12.3454 218.766L2.69971 221.405ZM32.9255 274.584C54.6367 292.968 87.8816 299.055 120.71 292.356L118.711 282.558C88.0291 288.819 58.1647 282.852 39.3875 266.952L32.9255 274.584ZM120.712 292.356C138.022 288.818 150.225 280.837 160.276 271.809L153.593 264.369C144.46 272.573 133.812 279.472 118.709 282.558L120.712 292.356ZM160.268 271.816C178.914 255.136 189.225 236.295 196.017 216.808L186.574 213.517C180.194 231.824 170.69 249.076 153.601 264.363L160.268 271.816ZM196.065 216.662C201.312 199.98 204.096 183.001 204.369 165.953L194.371 165.793C194.113 181.85 191.491 197.873 186.526 213.662L196.065 216.662ZM204.365 166.101C204.707 158.581 204.692 150.623 204.912 143.399L194.916 143.095C194.678 150.931 194.72 158.069 194.375 165.646L204.365 166.101Z" fill="black" mask="url(#path-1-inside-1_340_16264)"/>
</svg>
