<svg width="410" height="110" viewBox="0 0 410 110" fill="none" xmlns="http://www.w3.org/2000/svg">
<path fill-rule="evenodd" clip-rule="evenodd" d="M80 0H90H100H110V10H120V20H130V30V40V50H120V60H110V70H100V80H90V90H80V100H70V110H60V100H50V90H40V80H30V70H20V60H10V50H0V40V30V20H10V10H20V0H30H40H50V10H60V20H70V10H80V0Z" fill="black"/>
<path d="M40.998 69.8343V57.3343H45.1647V44.8343H49.3314V28.1676H57.6647V44.8343H61.8314V57.3343H65.998V69.8343H57.6647V61.501H49.3314V69.8343H40.998ZM74.3314 74.001V28.1676H82.6647V44.8343H86.8314V53.1676H82.6647V74.001H74.3314Z" fill="white"/>
<path fill-rule="evenodd" clip-rule="evenodd" d="M220 0H230H240H250V10H260V20H270V30V40V50H260V60H250V70H240V80H230V90H220V100H210V110H200V100H190V90H180V80H170V70H160V60H150V50H140V40V30V20H150V10H160V0H170H180H190V10H200V20H210V10H220V0Z" fill="black"/>
<path d="M181.001 53.1676V36.501H197.668V32.3343H181.001V28.1676H206.001V40.6676H189.334V44.8343H210.168V53.1676H181.001ZM218.501 69.8343V74.001H189.334V69.8343H185.168V61.501H189.334V57.3343H218.501V61.501H222.668V69.8343H218.501ZM226.834 44.8343H222.668V53.1676H214.334V28.1676H222.668V36.501H226.834V44.8343ZM214.334 65.6676V61.501H193.501V65.6676H214.334Z" fill="white"/>
<path fill-rule="evenodd" clip-rule="evenodd" d="M360 0H370H380H390V10H400V20H410V30V40V50H400V60H390V70H380V80H370V90H360V100H350V110H340V100H330V90H320V80H310V70H300V60H290V50H280V40V30V20H290V10H300V0H310H320H330V10H340V20H350V10H360V0Z" fill="black"/>
<path d="M326 63.3343V50.001H329.333V46.6676H339.333V50.001H342.667V63.3343H339.333V66.6676H329.333V63.3343H326ZM326 36.6676H332.667V33.3343H339.333V36.6676H342.667V43.3343H326V36.6676ZM332.667 60.001H336V53.3343H332.667V60.001ZM346 70.001V33.3343H349.333V46.6676H352.667V33.3343H359.333V70.001H352.667V53.3343H349.333V70.001H346Z" fill="white"/>
</svg>
