<svg width="78" height="76" viewBox="0 0 78 76" fill="none" xmlns="http://www.w3.org/2000/svg">
<mask id="path-1-inside-1_340_16390" fill="white">
<path fill-rule="evenodd" clip-rule="evenodd" d="M37.4994 74.9997C16.7889 74.9997 -0.000305176 58.2105 -0.000305176 37.4999C-0.000305176 16.7893 16.7889 0 37.4994 0C58.2099 0 74.9991 16.7893 74.9991 37.4999C74.9991 44.6649 72.9896 51.3606 69.5035 57.0541L77.2227 75.2765L59.5887 67.8065C53.3931 72.33 45.758 74.9997 37.4994 74.9997Z"/>
</mask>
<path fill-rule="evenodd" clip-rule="evenodd" d="M37.4994 74.9997C16.7889 74.9997 -0.000305176 58.2105 -0.000305176 37.4999C-0.000305176 16.7893 16.7889 0 37.4994 0C58.2099 0 74.9991 16.7893 74.9991 37.4999C74.9991 44.6649 72.9896 51.3606 69.5035 57.0541L77.2227 75.2765L59.5887 67.8065C53.3931 72.33 45.758 74.9997 37.4994 74.9997Z" fill="white"/>
<path d="M69.5035 57.0541L67.2016 58.0292L66.7 56.8452L67.3714 55.7486L69.5035 57.0541ZM77.2227 75.2765L79.5246 74.3013L81.9331 79.9869L76.2475 77.5784L77.2227 75.2765ZM59.5887 67.8065L58.1145 65.7874L59.259 64.9518L60.5638 65.5045L59.5887 67.8065ZM2.49968 37.4999C2.49968 56.8298 18.1696 72.4997 37.4994 72.4997V77.4997C15.4082 77.4997 -2.50029 59.5911 -2.50029 37.4999H2.49968ZM37.4994 2.49998C18.1696 2.49998 2.49968 18.17 2.49968 37.4999H-2.50029C-2.50029 15.4086 15.4082 -2.49998 37.4994 -2.49998V2.49998ZM72.4991 37.4999C72.4991 18.17 56.8292 2.49998 37.4994 2.49998V-2.49998C59.5906 -2.49998 77.4991 15.4086 77.4991 37.4999H72.4991ZM67.3714 55.7486C70.6238 50.4368 72.4991 44.1912 72.4991 37.4999H77.4991C77.4991 45.1386 75.3554 52.2843 71.6356 58.3595L67.3714 55.7486ZM74.9207 76.2516L67.2016 58.0292L71.8055 56.079L79.5246 74.3013L74.9207 76.2516ZM60.5638 65.5045L78.1978 72.9745L76.2475 77.5784L58.6135 70.1085L60.5638 65.5045ZM37.4994 72.4997C45.2105 72.4997 52.3325 70.0089 58.1145 65.7874L61.0629 69.8256C54.4537 74.651 46.3055 77.4997 37.4994 77.4997V72.4997Z" fill="#BDBDBD" mask="url(#path-1-inside-1_340_16390)"/>
<path d="M37.7039 28.5602C37.9972 27.4402 38.4106 26.4802 38.9439 25.6802C39.5039 24.8802 40.1439 24.2268 40.8639 23.7202C41.5839 23.1869 42.3705 22.8002 43.2239 22.5602C44.1039 22.2935 45.0239 22.1602 45.9839 22.1602C47.1305 22.1602 48.2105 22.4135 49.2238 22.9202C50.2372 23.4002 51.1172 24.0802 51.8638 24.9602C52.6371 25.8135 53.2371 26.8268 53.6638 28.0002C54.1171 29.1735 54.3438 30.4401 54.3438 31.8001C54.3438 33.2668 54.0771 34.6401 53.5438 35.9201C53.0105 37.2001 52.3572 38.3868 51.5838 39.4801C50.8105 40.5467 49.9705 41.5334 49.0638 42.4401C48.1572 43.3201 47.3305 44.1201 46.5839 44.8401C45.6772 45.7201 44.7705 46.6667 43.8639 47.68C42.9572 48.6667 42.1039 49.64 41.3039 50.6C40.5039 51.56 39.7706 52.4667 39.1039 53.32C38.4639 54.1733 37.9572 54.8933 37.5839 55.48L37.5039 55.56L37.4239 55.48C37.0506 54.8933 36.5306 54.1733 35.8639 53.32C35.2239 52.4667 34.5039 51.56 33.7039 50.6C32.9039 49.64 32.0506 48.6667 31.1439 47.68C30.2373 46.6667 29.3306 45.7201 28.424 44.8401C27.6773 44.1201 26.8506 43.3201 25.944 42.4401C25.0373 41.5334 24.1973 40.5467 23.424 39.4801C22.6507 38.3868 21.9973 37.2001 21.464 35.9201C20.9307 34.6401 20.664 33.2668 20.664 31.8001C20.664 30.4401 20.8773 29.1735 21.304 28.0002C21.7573 26.8268 22.3573 25.8135 23.104 24.9602C23.8773 24.0802 24.7707 23.4002 25.784 22.9202C26.7973 22.4135 27.8773 22.1602 29.024 22.1602C29.9573 22.1602 30.8506 22.2935 31.7039 22.5602C32.5839 22.8002 33.3839 23.1869 34.1039 23.7202C34.8506 24.2268 35.4906 24.8802 36.0239 25.6802C36.5839 26.4802 37.0106 27.4402 37.3039 28.5602C37.3306 28.7468 37.3972 28.8402 37.5039 28.8402C37.6106 28.8402 37.6772 28.7468 37.7039 28.5602Z" fill="black"/>
</svg>
