<svg width="78" height="76" viewBox="0 0 78 76" fill="none" xmlns="http://www.w3.org/2000/svg">
<path fill-rule="evenodd" clip-rule="evenodd" d="M39.7211 75C60.4318 75 77.2211 58.2107 77.2211 37.5C77.2211 16.7893 60.4318 0 39.7211 0C19.0104 0 2.2211 16.7893 2.2211 37.5C2.2211 44.666 4.23112 51.3626 7.71811 57.0566L0 75.2765L17.6323 67.8073C23.8278 72.3305 31.4627 75 39.7211 75Z" fill="black"/>
<path d="M40.2 28.56C40.4933 27.44 40.9067 26.48 41.44 25.68C42 24.88 42.64 24.2267 43.36 23.72C44.08 23.1867 44.8667 22.8 45.72 22.56C46.6 22.2933 47.52 22.16 48.48 22.16C49.6267 22.16 50.7067 22.4133 51.72 22.92C52.7333 23.4 53.6133 24.08 54.36 24.96C55.1333 25.8133 55.7333 26.8267 56.16 28C56.6133 29.1733 56.84 30.44 56.84 31.8C56.84 33.2667 56.5733 34.64 56.04 35.92C55.5067 37.2 54.8533 38.3867 54.08 39.48C53.3067 40.5467 52.4667 41.5333 51.56 42.44C50.6533 43.32 49.8267 44.12 49.08 44.84C48.1733 45.72 47.2667 46.6667 46.36 47.68C45.4533 48.6667 44.6 49.64 43.8 50.6C43 51.56 42.2667 52.4667 41.6 53.32C40.96 54.1733 40.4533 54.8933 40.08 55.48L40 55.56L39.92 55.48C39.5467 54.8933 39.0267 54.1733 38.36 53.32C37.72 52.4667 37 51.56 36.2 50.6C35.4 49.64 34.5467 48.6667 33.64 47.68C32.7333 46.6667 31.8267 45.72 30.92 44.84C30.1733 44.12 29.3467 43.32 28.44 42.44C27.5333 41.5333 26.6933 40.5467 25.92 39.48C25.1467 38.3867 24.4933 37.2 23.96 35.92C23.4267 34.64 23.16 33.2667 23.16 31.8C23.16 30.44 23.3733 29.1733 23.8 28C24.2533 26.8267 24.8533 25.8133 25.6 24.96C26.3733 24.08 27.2667 23.4 28.28 22.92C29.2933 22.4133 30.3733 22.16 31.52 22.16C32.4533 22.16 33.3467 22.2933 34.2 22.56C35.08 22.8 35.88 23.1867 36.6 23.72C37.3467 24.2267 37.9867 24.88 38.52 25.68C39.08 26.48 39.5067 27.44 39.8 28.56C39.8267 28.7467 39.8933 28.84 40 28.84C40.1067 28.84 40.1733 28.7467 40.2 28.56Z" fill="white"/>
</svg>
