<svg width="400" height="170" viewBox="0 0 400 170" fill="none" xmlns="http://www.w3.org/2000/svg">
<path d="M398.75 85C398.75 96.3096 393.362 107.191 383.397 117.204C373.427 127.222 358.937 136.302 340.932 143.954C304.928 159.255 255.102 168.75 200 168.75C144.898 168.75 95.0718 159.255 59.0676 143.954C41.0631 136.302 26.5733 127.222 16.603 117.204C6.63778 107.191 1.25 96.3096 1.25 85C1.25 73.6904 6.63778 62.8091 16.603 52.7959C26.5733 42.7777 41.0631 33.6982 59.0676 26.0463C95.0718 10.7446 144.898 1.25 200 1.25C255.102 1.25 304.928 10.7446 340.932 26.0463C358.937 33.6982 373.427 42.7777 383.397 52.7959C393.362 62.8091 398.75 73.6904 398.75 85Z" fill="white" stroke="black" stroke-width="2.5"/>
</svg>
